<svg width="1026" height="1026" viewBox="0 0 1026 1026" fill="none" xmlns="http://www.w3.org/2000/svg">
<g clip-path="url(#clip0_308_100)">
<path d="M1025 1H1V1025H1025V1Z" fill="#202020"/>
<path d="M710.915 682.251L855.584 760.211V800.062L675.584 891.251V846.374L804.053 780.136L699.702 726.867" stroke="#5702AF" stroke-width="11" stroke-linecap="round" stroke-linejoin="round"/>
<path d="M365.883 275.841L255.511 333.198L348.343 381.309M326.463 415.393L204 353.12V313.275L355.965 236" stroke="#5702AF" stroke-width="11" stroke-linecap="round" stroke-linejoin="round"/>
<path d="M437.466 135.001C438.428 135.042 440.475 136.363 443.794 138.325C479.797 159.611 510.622 182.135 528.794 200.435C543.319 215.061 557.262 234.18 562.985 247.317L565.688 253.522L573.805 256.317C600.316 265.444 642.235 290.946 668.343 313.831C682.918 326.607 718.79 363.005 729.55 375.935C762.297 415.288 786.376 459.987 798.772 504.435C803.388 520.984 805.895 535.815 807.995 558.993C809.415 574.669 809.493 579.999 808.516 594.536C804.749 650.638 789.887 697.395 762.934 737.935C732.257 784.075 692.508 815.585 638.423 836.636C600.354 851.452 554.985 861.012 515.12 862.616C498.993 863.265 497.932 863.75 506.923 866.353C516.426 869.104 524.997 870.129 543.923 870.78L562.923 871.435L551.923 874.153C545.873 875.649 536.423 877.313 530.923 877.851C519.667 878.951 484.815 879.9 476.423 879.333C452.027 877.686 440.056 875.973 420.923 871.396C405.872 867.795 393.376 863.692 375.923 856.618C356.992 848.945 354.225 847.706 342.423 841.626C280.667 809.812 248.487 779.346 223.923 729.435C204.735 690.447 195.795 645.236 198.462 600.685C199.482 583.643 203.049 559.191 206.513 545.511C208.388 538.104 215.397 514.936 215.764 514.933C215.851 514.932 215.773 520.506 215.593 527.319C214.623 563.817 227.356 607.831 248.171 639.935C265.676 666.934 297.464 698.018 328.923 718.897C339.407 725.856 339.752 726.231 334.923 725.411C301.814 719.792 265.961 704.903 244.173 687.724C239.241 683.835 239.432 685.383 244.774 692.575C266.481 721.801 319.096 747.578 367.923 752.911C393.572 755.713 436.184 754.99 459.423 751.358C482.381 747.771 509.79 740.695 527.923 733.677C550.817 724.815 575.715 709.357 596.837 690.892C634.583 657.892 653.691 618.041 650.997 577.935C650.324 567.92 646.465 546.87 643.755 538.435C638.855 523.181 629.543 503.81 621.723 492.601C618.717 488.291 616.474 484.552 616.735 484.29C617.313 483.712 632.037 497.382 638.378 504.384C673.238 542.877 702.097 592.682 718.372 642.435C720.711 649.585 722.94 656.284 723.325 657.323C724.089 659.384 728.622 636.912 730.563 621.435C732.264 607.872 731.964 577.448 730.001 564.435C722.117 512.174 697.031 460.19 653.995 406.935C635.894 384.535 609.935 357.402 590.317 340.376C583.384 334.359 574.514 326.663 570.604 323.276C565.902 319.07 562.002 312.686 557.446 301.685C544.569 257.759 526.33 231.398 488.423 201.923C483.198 197.86 477.704 193.163 476.214 191.485C474.724 189.807 473.486 188.972 473.464 189.628C473.441 190.284 474.948 197.034 476.811 204.628C481.955 225.592 483.474 236.19 483.489 251.22C483.521 282.261 478.389 299.775 466.305 309.872C461.243 314.102 447.129 322.194 440.255 324.808L437.761 325.757L441.03 315.899C444.623 305.064 448.438 288.878 451.038 273.435C453.25 260.298 453.597 210.932 451.573 197.435C448.776 178.781 444.234 158.093 440.815 148.435C437.271 138.42 435.862 134.932 437.466 135.001ZM319.886 194.138C320.879 193.144 346.8 202.629 356.923 207.69C378.738 218.598 399.082 234.965 411.347 251.478C413.78 254.754 417.717 260.023 420.097 263.187C422.476 266.35 424.423 269.155 424.423 269.421C424.423 269.687 421.61 271.319 418.173 273.048C410.169 277.073 401.998 283.601 391.835 294.089C380.664 305.617 373.853 316.694 367.944 332.935C365.436 339.83 365.143 342.209 364.323 362.435C363.063 393.507 362.281 398.738 357.419 408.618C352.378 418.861 343.649 428.327 324.177 444.665C310.931 455.779 286.659 474.386 271.423 485.108C267.848 487.624 263.488 490.413 261.733 491.304L258.544 492.923L257.981 488.679C257.672 486.344 257.307 482.41 257.171 479.935L256.923 475.435L266.923 467.638C317.703 428.042 325.175 420.7 335.835 399.935C341.422 389.051 343.418 380.077 343.44 365.737C343.467 348.569 344.843 338.372 348.364 329.241C351.288 321.659 363.12 298.74 364.403 298.173C365.127 297.853 363.908 285.918 361.774 272.435C357.69 246.621 346.969 225.372 326.419 202.358C322.591 198.072 319.651 194.373 319.886 194.138ZM576.423 280.503C576.423 283.875 579.659 305.316 580.725 309.009L582.005 313.435L592.464 314.14C598.216 314.527 605.623 315.48 608.923 316.259C612.223 317.037 615.373 317.723 615.923 317.784C616.473 317.845 614.898 316.22 612.423 314.171C605.484 308.428 579.558 283.964 577.899 281.597C577.088 280.438 576.423 279.945 576.423 280.503ZM459.419 367.763C462.885 367.603 466.555 367.734 470.417 368.157C475.088 368.669 479.082 369.26 479.292 369.47C479.502 369.68 477.085 372.233 473.923 375.144C460.616 387.388 446.468 395.02 432.434 397.524C428.303 398.262 423.449 398.88 421.647 398.899L418.372 398.935L420.022 395.685C422.857 390.105 430.132 380.398 434.065 376.944C440.461 371.329 449.021 368.241 459.419 367.763ZM492.427 412.06C506.937 413.011 521.13 421.553 537.11 438.269C546.049 447.619 558.423 463.183 558.423 465.077C558.423 465.638 556.735 465.092 554.673 463.862C546.694 459.105 544.711 458.102 538.276 455.569C522.396 449.321 499.462 446.013 485.384 447.94C474.445 449.438 467.959 451.993 460.28 457.831C448.688 466.645 448.609 466.419 463.243 466.536C473.538 466.619 477.788 467.134 485.85 469.274C514.468 476.872 534.444 494.577 540.007 517.274C542.223 526.319 541.462 544.735 538.374 556.774C533.347 576.376 521.054 599.02 506.786 614.96C504.091 617.971 500.129 622.685 497.983 625.435C493.029 631.783 491.922 632.939 493.194 630.435C493.753 629.335 495.36 623.71 496.764 617.935C506.888 576.313 499.407 542.993 474.772 519.987C456.744 503.151 442.425 500.079 409.403 505.96C386.26 510.082 375.388 513.592 353.188 524.106C343.418 528.734 333.726 532.603 329.903 533.403C322.664 534.918 314.404 534.233 308.423 531.624L304.923 530.099L309.423 530.001C311.898 529.948 315.937 529.301 318.399 528.565L322.876 527.228L313.399 526.524C294.947 525.153 283.164 520.435 276.055 511.575C270.773 504.991 270.77 505.013 276.657 505.61C281.038 506.055 284.106 505.436 294.923 501.919C302.073 499.594 314.448 495.102 322.423 491.936C344.063 483.348 381.805 465.587 385.673 462.171C388.893 459.326 387.472 462.508 381.419 471.696C374.76 481.803 361.901 495.945 354.284 501.536C351.559 503.536 349.53 505.376 349.776 505.622C350.65 506.496 362.659 499.902 384.923 486.323C396.259 479.409 407.694 469.658 428.423 449.226C449.519 428.431 455.381 423.561 465.509 418.419C474.899 413.651 483.72 411.489 492.427 412.06ZM497.423 702.962C497.698 702.973 494.098 705.227 489.423 707.972C478.44 714.42 462.894 720.477 449.534 723.513C434.192 726.999 414.291 727.507 393.923 724.931C386.901 724.042 362.045 717.978 362.708 717.315C362.845 717.179 367.675 717.699 373.44 718.47C394.504 721.287 423.961 720.157 452.923 715.423C469.956 712.639 478.654 710.394 489.423 706.001C493.548 704.318 497.148 702.951 497.423 702.962ZM268.997 751.026C267.891 752.133 270.876 761.073 274.847 768.546C287.708 792.753 310.994 814.136 341.114 829.392C366 841.996 393.359 850.499 416.923 852.954C441.028 855.465 476.429 850.605 506.423 840.665C531.161 832.467 560.412 814.044 578.923 794.999L583.923 789.854L573.147 795.481C546.719 809.28 523.6 816.401 490.423 820.964C479.92 822.408 451.207 822.387 436.835 820.925C375.883 814.725 308.444 787.174 273.19 754.069C271.138 752.142 269.251 750.772 268.997 751.026Z" fill="white"/>
</g>
<rect x="0.5" y="0.5" width="1025" height="1025" stroke="white"/>
<defs>
<clipPath id="clip0_308_100">
<rect x="1" y="1" width="1024" height="1024" fill="white"/>
</clipPath>
</defs>
</svg>
