<?xml version="1.0" encoding="UTF-8" standalone="no"?>
<!-- Created with Inkscape (http://www.inkscape.org/) -->

<svg
   version="1.1"
   id="svg1050"
   width="1024"
   height="1024"
   viewBox="0 0 1024 1024"
   sodipodi:docname="document.svg"
   inkscape:version="1.2 (dc2aedaf03, 2022-05-15)"
   inkscape:export-filename="document.png"
   inkscape:export-xdpi="96"
   inkscape:export-ydpi="96"
   xmlns:inkscape="http://www.inkscape.org/namespaces/inkscape"
   xmlns:sodipodi="http://sodipodi.sourceforge.net/DTD/sodipodi-0.dtd"
   xmlns="http://www.w3.org/2000/svg"
   xmlns:svg="http://www.w3.org/2000/svg">
  <defs
     id="defs1054" />
  <sodipodi:namedview
     id="namedview1052"
     pagecolor="#505050"
     bordercolor="#eeeeee"
     borderopacity="1"
     inkscape:showpageshadow="0"
     inkscape:pageopacity="0"
     inkscape:pagecheckerboard="0"
     inkscape:deskcolor="#505050"
     showgrid="false"
     showguides="false"
     inkscape:zoom="0.34112378"
     inkscape:cx="532.06493"
     inkscape:cy="504.2158"
     inkscape:window-width="1366"
     inkscape:window-height="697"
     inkscape:window-x="-8"
     inkscape:window-y="-8"
     inkscape:window-maximized="1"
     inkscape:current-layer="g1056" />
  <g
     inkscape:groupmode="layer"
     inkscape:label="Image"
     id="g1056">
    <rect
       style="fill:#202020;fill-opacity:1;stroke:none;stroke-width:8.93519;stroke-linecap:round;stroke-linejoin:round;stroke-dasharray:35.7407, 35.7407"
       id="rect1812"
       width="1024"
       height="1024"
       x="0"
       y="0" />
    <g
       aria-label="&gt;"
       id="text1873"
       style="font-weight:bold;font-size:333.486px;font-family:'Century Gothic';-inkscape-font-specification:'Century Gothic Bold';fill:none;stroke:#5702af;stroke-width:7.55906;stroke-linecap:round;stroke-linejoin:round">
      <path
         d="m 800.17287,718.09623 85.55572,43.50581 v 36.14936 l -162.67213,82.72016 v -40.70874 l 116.10133,-60.0861 -58.15635,-30.17931"
         id="path2134"
         sodipodi:nodetypes="ccccccc" />
    </g>
    <text
       xml:space="preserve"
       style="font-weight:bold;font-size:333.486px;font-family:'Century Gothic';-inkscape-font-specification:'Century Gothic Bold';display:none;fill:none;fill-opacity:1;stroke:#5702af;stroke-width:7.55906;stroke-linecap:round;stroke-linejoin:round;stroke-dasharray:none;stroke-dashoffset:0;stroke-opacity:1"
       x="704.33044"
       y="899.36041"
       id="text1873-5"><tspan
         sodipodi:role="line"
         id="tspan1871-3"
         x="704.33044"
         y="899.36041"
         style="font-style:normal;font-variant:normal;font-weight:bold;font-stretch:normal;font-family:'Century Gothic';-inkscape-font-specification:'Century Gothic Bold';fill:none;fill-opacity:1;stroke:#5702af;stroke-width:7.55906;stroke-dasharray:none;stroke-dashoffset:0;stroke-opacity:1">&gt;</tspan></text>
    <g
       aria-label="&lt;"
       id="text1873-7"
       style="font-weight:bold;font-size:333.486px;font-family:'Century Gothic';-inkscape-font-specification:'Century Gothic Bold';display:inline;fill:none;stroke:#5702af;stroke-width:7.55906;stroke-linecap:round;stroke-linejoin:round">
      <path
         d="m 357.06523,289.98717 -100.13629,52.03711 84.223,43.64928 M 321.30104,416.59717 210.1953,360.09896 V 323.9496 l 137.87185,-70.109"
         id="path2036"
         sodipodi:nodetypes="ccccccc" />
    </g>
    <text
       xml:space="preserve"
       style="font-weight:bold;font-size:333.486px;font-family:'Century Gothic';-inkscape-font-specification:'Century Gothic Bold';display:none;fill:none;fill-opacity:1;stroke:#5702af;stroke-width:7.55906;stroke-linecap:round;stroke-linejoin:round;stroke-dasharray:none;stroke-dashoffset:0;stroke-opacity:1"
       x="191.46928"
       y="461.70798"
       id="text1873-7-8"><tspan
         sodipodi:role="line"
         id="tspan1871-7-6"
         x="191.46928"
         y="461.70798"
         style="font-style:normal;font-variant:normal;font-weight:bold;font-stretch:normal;font-family:'Century Gothic';-inkscape-font-specification:'Century Gothic Bold';fill:none;fill-opacity:1;stroke:#5702af;stroke-width:7.55906;stroke-dasharray:none;stroke-dashoffset:0;stroke-opacity:1">&lt;</tspan></text>
    <path
       id="rect1733"
       style="fill:#ffffff;fill-opacity:1;stroke:none;stroke-width:7.52883;stroke-linecap:round;stroke-linejoin:round;stroke-dasharray:30.1153, 30.1153"
       d="m 445.88142,139.74988 c 0.96199,0.0414 3.00932,1.36209 6.32812,3.32421 36.00341,21.2858 66.8279,43.81002 85,62.10938 14.5249,14.62665 28.468,33.74516 34.1914,46.88281 l 2.7031,6.20508 8.1172,2.79492 c 26.5101,9.12628 68.4294,34.6284 94.5371,57.51367 14.5752,12.77624 50.4478,49.17388 61.2071,62.10352 32.7478,39.35372 56.8265,84.05203 69.2226,128.5 4.6155,16.54943 7.1226,31.38005 9.2227,54.55859 1.4203,15.67621 1.4976,21.0057 0.5215,35.54297 -3.767,56.10144 -18.6293,102.8591 -45.5821,143.39844 -30.6769,46.14088 -70.4264,77.65062 -124.5117,98.70117 -38.0686,14.81669 -83.4377,24.37585 -123.3027,25.98047 -16.12657,0.64911 -17.18813,1.1335 -8.1973,3.73633 9.5033,2.75119 18.0743,3.77621 37,4.42773 l 19,0.6543 -11,2.71875 c -6.05,1.49548 -15.5,3.15937 -21,3.69727 -11.2555,1.10077 -46.10815,2.04899 -54.49999,1.48242 -24.39576,-1.64707 -36.3668,-3.35982 -55.5,-7.9375 -15.05063,-3.60092 -27.54648,-7.70339 -45,-14.77735 -18.93115,-7.67283 -21.69808,-8.91226 -33.5,-14.99218 -61.75586,-31.81441 -93.93562,-62.28027 -118.5,-112.19141 -19.18798,-38.98733 -28.12813,-84.19863 -25.46094,-128.75 1.0202,-17.04152 4.58759,-41.49366 8.05078,-55.17383 1.875,-7.40629 8.88496,-30.57512 9.25196,-30.57812 0.0865,-7.7e-4 0.009,5.57306 -0.17188,12.38672 -0.9697,36.49786 11.76335,80.51157 32.57813,112.61523 17.50548,26.99963 49.29344,58.08344 80.75195,78.96289 10.48414,6.95847 10.82953,7.33329 6,6.51367 -33.10913,-5.61898 -68.96132,-20.50764 -90.75,-37.6875 -4.932,-3.88869 -4.74073,-2.34099 0.60156,4.85156 21.70708,29.22533 74.32207,55.00308 123.14844,60.33594 25.649,2.80142 68.26159,2.07873 91.5,-1.55273 22.95874,-3.58776 50.36729,-10.66323 68.49999,-17.68164 22.8946,-8.86154 47.7927,-24.31979 68.9141,-42.78516 37.7466,-33.00003 56.8544,-72.85104 54.1601,-112.95703 -0.6727,-10.01469 -4.5323,-31.06458 -7.2422,-39.5 -4.8999,-15.25314 -14.2114,-34.62448 -22.0312,-45.83398 -3.0061,-4.30912 -5.2497,-8.04909 -4.9883,-8.31055 0.578,-0.57794 15.3017,13.09189 21.6426,20.09375 34.86,38.49366 63.7188,88.29805 79.9941,138.05078 2.339,7.14999 4.5678,13.84967 4.9532,14.88867 0.7644,2.061 5.297,-20.41167 7.2382,-35.88867 1.7011,-13.56235 1.4008,-43.98636 -0.5625,-57 -7.8841,-52.26078 -32.9702,-104.24504 -76.0058,-157.5 -18.1009,-22.39912 -44.0604,-49.53224 -63.6778,-66.55859 -6.9329,-6.01727 -15.8036,-13.71261 -19.7128,-17.09961 -4.702,-4.20652 -8.6027,-10.59022 -13.1582,-21.5918 -12.877,-43.92546 -31.1157,-70.2869 -69.02349,-99.76172 -5.22499,-4.06264 -10.71884,-8.75963 -12.20898,-10.4375 -1.49015,-1.67788 -2.7276,-2.5138 -2.75,-1.85742 -0.0224,0.65638 1.48436,7.40639 3.34765,15 5.14405,20.9639 6.66244,31.56199 6.67774,46.5918 0.0317,31.04126 -5.09978,48.55535 -17.1836,58.65234 -5.06228,4.22996 -19.17686,12.32208 -26.05078,14.93555 l -2.49414,0.94922 3.26953,-9.85743 c 3.59309,-10.83588 7.40759,-27.02108 10.00781,-42.46484 2.21179,-13.13662 2.55915,-62.50284 0.53516,-76 -2.79726,-18.6537 -7.33936,-39.342 -10.75781,-49 -3.54464,-10.01448 -4.95294,-13.50264 -3.34961,-13.43359 z m -117.58008,59.13671 c 0.99372,-0.99372 26.91458,8.49175 37.03711,13.55274 21.81545,10.90712 42.15964,27.27491 54.42383,43.78711 2.43343,3.27632 6.37093,8.54575 8.75,11.70898 2.37906,3.16324 4.32617,5.96803 4.32617,6.23438 0,0.26634 -2.8125,1.89835 -6.25,3.62695 -8.00376,4.02485 -16.17502,10.5529 -26.33789,21.04102 -11.17044,11.52794 -17.98213,22.60486 -23.89063,38.8457 -2.50848,6.89516 -2.80096,9.27419 -3.62109,29.5 -1.25994,31.0722 -2.04191,36.30322 -6.9043,46.18359 -5.04077,10.24284 -13.76979,19.70836 -33.24218,36.04688 -13.24516,11.1135 -37.51714,29.72095 -52.75391,40.44336 -3.575,2.51579 -7.93515,5.3043 -9.68945,6.19531 l -3.18946,1.61914 -0.5625,-4.24414 c -0.3096,-2.33444 -0.67434,-6.26914 -0.81054,-8.74414 l -0.24805,-4.5 10,-7.79688 c 50.78033,-39.59613 58.25219,-46.9377 68.91211,-67.70312 5.58705,-10.88354 7.58297,-19.85742 7.60547,-34.19727 0.027,-17.16843 1.40248,-27.36493 4.92383,-36.49609 2.92397,-7.58213 14.75631,-30.50108 16.03906,-31.06836 0.72347,-0.31995 -0.4956,-12.25536 -2.62891,-25.73828 -4.08437,-25.81405 -14.80477,-47.06226 -35.35547,-70.07618 -3.82794,-4.28677 -6.768,-7.98591 -6.5332,-8.2207 z m 256.5371,86.36524 c 0,3.37231 3.2361,24.8131 4.3027,28.50586 l 1.2793,4.42578 10.459,0.70508 c 5.7525,0.38752 13.159,1.3407 16.459,2.11914 3.3,0.77844 6.45,1.46459 7,1.52539 0.55,0.0608 -1.025,-1.56452 -3.5,-3.61328 -6.9382,-5.74332 -32.8651,-30.20669 -34.5234,-32.57422 -0.8116,-1.15874 -1.4766,-1.65147 -1.4766,-1.09375 z m -117.0039,87.25976 c 3.46581,-0.15944 7.1366,-0.0286 10.99805,0.39454 4.67153,0.51196 8.66497,1.10247 8.875,1.3125 0.21003,0.21003 -2.20648,2.76372 -5.36914,5.67382 -13.30711,12.24446 -27.455,19.8768 -41.48828,22.38086 -4.13142,0.73721 -8.98549,1.3558 -10.78711,1.375 l -3.27539,0.0352 1.65039,-3.25 c 2.83475,-5.57929 10.10945,-15.28656 14.04297,-18.74023 6.39562,-5.61544 14.9561,-8.70331 25.35351,-9.18165 z m 33.00782,44.29688 c 14.51048,0.95155 28.70308,9.49311 44.68358,26.20898 8.9388,9.35016 21.3125,24.91487 21.3125,26.8086 0,0.56101 -1.6875,0.015 -3.75,-1.21485 -7.9782,-4.75726 -9.9614,-5.76079 -16.3965,-8.29296 -15.8802,-6.24875 -38.81398,-9.55654 -52.89255,-7.62891 -10.93872,1.49772 -17.42495,4.05238 -25.10352,9.89062 -11.59256,8.81416 -11.67097,8.58771 2.96289,8.70508 10.29535,0.0826 14.54522,0.5978 22.60742,2.73828 28.61746,7.59784 48.59386,25.30221 54.15626,48 2.2164,9.04418 1.4549,27.4605 -1.6328,39.5 -5.027,19.60119 -17.3199,42.24539 -31.5879,58.18555 -2.69532,3.0112 -6.65656,7.72461 -8.80274,10.47461 -4.95439,6.34825 -6.06135,7.50404 -4.78907,5 0.55891,-1.1 2.16569,-6.72501 3.57032,-12.5 10.12339,-41.62115 2.64211,-74.94153 -21.99219,-97.94727 -18.02816,-16.8363 -32.3477,-19.90868 -65.36914,-14.02734 -23.14271,4.12188 -34.01561,7.63174 -56.21485,18.14649 -9.77013,4.62766 -19.4621,8.49698 -23.28515,9.29687 -7.23898,1.51459 -15.4989,0.82991 -21.48047,-1.7793 l -3.5,-1.52539 4.5,-0.0977 c 2.475,-0.0532 6.5147,-0.69957 8.97656,-1.43555 l 4.47656,-1.33789 -9.47656,-0.70313 c -18.45217,-1.37162 -30.23478,-6.08909 -37.34375,-14.94922 -5.28258,-6.58384 -5.28516,-6.56231 0.60157,-5.96484 4.38105,0.44465 7.4489,-0.17454 18.26562,-3.6914 7.14999,-2.32469 19.52501,-6.81736 27.5,-9.98243 21.64023,-8.58846 59.38244,-26.34974 63.25,-29.76562 3.22063,-2.84451 1.7994,0.3369 -4.25391,9.52539 -6.6583,10.10684 -19.51764,24.24836 -27.13476,29.83984 -2.72495,2.0003 -4.75397,3.83978 -4.50781,4.08594 0.87413,0.87414 12.88248,-5.72018 35.14648,-19.29883 11.33679,-6.91422 22.77159,-16.66569 43.5,-37.09765 21.0966,-20.79488 26.95819,-25.66417 37.08594,-30.80664 9.39013,-4.76794 18.21166,-6.93031 26.91797,-6.35938 z m 4.99609,290.90234 c 0.275,0.0108 -3.325,2.26477 -8,5.00977 -10.98257,6.44857 -26.52915,12.50531 -39.88867,15.54101 -15.3421,3.48621 -35.24319,3.9944 -55.61133,1.41797 -7.02159,-0.88819 -31.87776,-6.95231 -31.21484,-7.61523 0.13686,-0.13686 4.96687,0.38311 10.73242,1.1543 21.0636,2.81742 50.52094,1.68741 79.48242,-3.04688 17.03292,-2.78435 25.73101,-5.02904 36.5,-9.42187 4.125,-1.68265 7.725,-3.04987 8,-3.03907 z m -228.42578,48.06446 c -1.1063,1.1063 1.87933,10.04658 5.84961,17.51953 12.8612,24.20742 36.14775,45.58997 66.26758,60.8457 24.88595,12.60476 52.24535,21.10785 75.80859,23.5625 24.10521,2.51111 59.50613,-2.34957 89.49999,-12.28906 24.7383,-8.19787 53.9892,-26.62152 72.5,-45.66602 l 5,-5.14453 -10.7754,5.62696 c -26.4278,13.79834 -49.5471,20.91941 -82.72459,25.48242 -10.50224,1.44444 -39.21545,1.4229 -53.58789,-0.0391 -60.95142,-6.19999 -128.39108,-33.75077 -163.64453,-66.85546 -2.0524,-1.92731 -3.93916,-3.29714 -4.19336,-3.04297 z"
       sodipodi:nodetypes="ssssccssssssssssccssssssssscssssssssssssssssssssccsssssscccssssssssssssssssccccccsssssssscccsssssssssscccssssssssssssssssssssssccccccssssssssssssssssssssssssssscccsssss" />
  </g>
</svg>
