<?xml version="1.0" encoding="UTF-8" standalone="no"?>
<!-- Uploaded to: SVG Repo, www.svgrepo.com, Generator: SVG Repo Mixer Tools -->

<svg
   fill="#fff"
   height="800px"
   width="800px"
   version="1.1"
   id="Capa_1"
   viewBox="0 0 463.001 463.001"
   xml:space="preserve"
   sodipodi:docname="loupe.svg"
   inkscape:version="1.2 (dc2aedaf03, 2022-05-15)"
   xmlns:inkscape="http://www.inkscape.org/namespaces/inkscape"
   xmlns:sodipodi="http://sodipodi.sourceforge.net/DTD/sodipodi-0.dtd"
   xmlns="http://www.w3.org/2000/svg"
   xmlns:svg="http://www.w3.org/2000/svg"><defs
   id="defs15" /><sodipodi:namedview
   id="namedview13"
   pagecolor="#505050"
   bordercolor="#eeeeee"
   borderopacity="1"
   inkscape:showpageshadow="0"
   inkscape:pageopacity="0"
   inkscape:pagecheckerboard="0"
   inkscape:deskcolor="#505050"
   showgrid="false"
   inkscape:zoom="0.323125"
   inkscape:cx="-20.116054"
   inkscape:cy="420.88975"
   inkscape:window-width="1366"
   inkscape:window-height="697"
   inkscape:window-x="-8"
   inkscape:window-y="-8"
   inkscape:window-maximized="1"
   inkscape:current-layer="g10" />
<g
   id="g10">
	<path
   d="m 303.501,0 c -87.948,0 -159.5,71.551 -159.5,159.5 0,36.188 12.122,69.593 32.507,96.386 l -32.311,32.311 c -0.205,0.205 -0.392,0.421 -0.569,0.643 -2.645,-0.551 -5.363,-0.84 -8.127,-0.84 -10.55,0 -20.47,4.109 -27.933,11.572 L 11.569,395.571 C 4.108,403.03 0,412.949 0,423.5 c 0,10.551 4.108,20.471 11.568,27.928 7.463,7.463 17.383,11.572 27.933,11.572 10.55,0 20.47,-4.109 27.933,-11.572 l 95.999,-95.999 c 7.461,-7.458 11.569,-17.377 11.569,-27.929 0,-2.765 -0.289,-5.484 -0.84,-8.129 0.222,-0.176 0.437,-0.363 0.642,-0.568 l 32.31,-32.31 c 26.794,20.386 60.199,32.507 96.387,32.507 87.948,0 159.5,-71.551 159.5,-159.5 C 463.001,71.551 391.449,0 303.501,0 Z m 0,304 c -79.678,0 -144.5,-64.822 -144.5,-144.5 0,-79.678 64.822,-144.5 144.5,-144.5 79.678,0 144.5,64.822 144.5,144.5 0,79.678 -64.822,144.5 -144.5,144.5 z"
   id="path2"
   sodipodi:nodetypes="sscscsscscsscscscssssssss"
   style="fill:#808080;fill-opacity:1" />
	<path
   d="M303.501,32c-70.304,0-127.5,57.196-127.5,127.5S233.197,287,303.501,287s127.5-57.196,127.5-127.5S373.805,32,303.501,32z    M303.501,272c-62.032,0-112.5-50.467-112.5-112.5S241.469,47,303.501,47s112.5,50.467,112.5,112.5S365.533,272,303.501,272z"
   id="path4"
   style="fill:#808080;fill-opacity:1" />
	<path
   d="M355.58,79.438c-3.47-2.262-8.116-1.283-10.378,2.188c-2.262,3.47-1.282,8.117,2.188,10.378   c22.924,14.94,36.61,40.172,36.61,67.496c0,18.667-6.534,36.86-18.399,51.226c-2.638,3.193-2.187,7.921,1.007,10.559   c1.398,1.155,3.09,1.717,4.772,1.717c2.16,0,4.304-0.929,5.787-2.724c14.079-17.047,21.833-38.632,21.833-60.777   C399.001,127.087,382.769,97.158,355.58,79.438z"
   id="path6" />
	<path
   d="M320.856,65.575C315.168,64.53,309.329,64,303.501,64c-4.143,0-7.5,3.358-7.5,7.5s3.357,7.5,7.5,7.5   c4.922,0,9.849,0.447,14.645,1.328c0.459,0.084,0.914,0.125,1.364,0.125c3.549,0,6.703-2.531,7.368-6.146   C327.626,70.233,324.93,66.324,320.856,65.575z"
   id="path8" />
</g>
</svg>
