<?xml version="1.0" encoding="UTF-8" standalone="no"?>
<svg
   class="share_icon share_icon--facebook"
   version="1.1"
   x="0px"
   y="0px"
   width="49.652px"
   height="49.652px"
   viewBox="0 0 49.652 49.652"
   style="enable-background:new 0 0 49.652 49.652;"
   xml:space="preserve"
   id="svg2676"
   xmlns="http://www.w3.org/2000/svg"
   xmlns:svg="http://www.w3.org/2000/svg"><defs
   id="defs2680" />
      <path
   id="path2670"
   style="enable-background:new 0 0 49.652 49.652;fill:#ffffff;fill-opacity:1"
   d="M 24.826172 0 C 11.137186 0 4.7369468e-15 11.137186 0 24.826172 C 0 38.514158 11.137186 49.652344 24.826172 49.652344 C 38.514158 49.652344 49.652344 38.514158 49.652344 24.826172 C 49.652344 11.137186 38.516158 4.7369468e-15 24.826172 0 z M 13.349609 14.015625 L 36.302734 14.015625 C 38.619911 14.015625 40.512175 15.909331 40.511719 18.226562 L 40.511719 31.427734 C 40.511719 33.744561 38.619561 35.636719 36.302734 35.636719 L 13.349609 35.636719 C 11.032784 35.636719 9.1386719 33.744561 9.1386719 31.427734 L 9.1386719 18.226562 C 9.1386719 15.909734 11.032784 14.015625 13.349609 14.015625 z M 16.865234 17.435547 L 24.824219 22.566406 L 32.787109 17.435547 L 16.865234 17.435547 z M 12.558594 19.212891 L 12.558594 31.427734 C 12.558594 31.867234 12.909743 32.214844 13.349609 32.214844 L 36.302734 32.214844 C 36.742598 32.214844 37.093501 31.867756 37.09375 31.427734 L 37.09375 19.212891 L 25.839844 26.447266 C 25.772894 26.489112 25.746711 26.50115 25.769531 26.488281 L 25.765625 26.488281 C 25.740609 26.502231 25.72034 26.514753 25.699219 26.525391 C 25.583672 26.584671 25.459869 26.635449 25.324219 26.671875 C 25.320959 26.672721 25.317542 26.671045 25.314453 26.671875 C 25.311291 26.672733 25.313292 26.675095 25.310547 26.675781 C 25.279851 26.683568 25.248018 26.686273 25.267578 26.681641 C 25.129778 26.714532 24.982615 26.738281 24.828125 26.738281 L 24.824219 26.738281 C 24.66715 26.738281 24.520897 26.71376 24.384766 26.681641 L 24.382812 26.681641 C 24.400279 26.685759 24.378284 26.684017 24.345703 26.675781 C 24.207488 26.639956 24.07931 26.585907 23.960938 26.525391 C 23.936608 26.513243 23.910191 26.501321 23.886719 26.488281 C 23.907995 26.500155 23.879176 26.489114 23.8125 26.447266 L 12.558594 19.212891 z " />
      </svg>
