<?xml version="1.0" encoding="UTF-8" standalone="no"?>
<svg
   class="share_icon share_icon--facebook"
   version="1.1"
   x="0px"
   y="0px"
   width="49.652px"
   height="49.652px"
   viewBox="0 0 49.652 49.652"
   style="enable-background:new 0 0 49.652 49.652;"
   xml:space="preserve"
   id="svg2676"
   xmlns="http://www.w3.org/2000/svg"
   xmlns:svg="http://www.w3.org/2000/svg"><defs
   id="defs2680" />
      
      <path
   id="circle6204"
   style="enable-background:new 0 0 49.652 49.652;opacity:1;fill:#ffffff;fill-rule:nonzero;stroke:none;stroke-width:1.00056392;stroke-linecap:butt;stroke-linejoin:miter;stroke-miterlimit:10;stroke-dasharray:none;fill-opacity:1"
   d="M 45.000311 0 A 45 45 0 0 0 0 45.000311 A 45 45 0 0 0 45.000311 90.000623 A 45 45 0 0 0 90.000623 45.000311 A 45 45 0 0 0 45.000311 0 z M 48.126366 17.973927 C 48.304631 17.941599 48.491397 17.946088 48.678647 17.988088 L 59.710114 20.190133 C 60.414113 18.959134 61.68777 18.133088 63.108768 17.988088 C 65.580766 17.719088 67.79614 19.509509 68.065139 21.981507 C 68.334139 24.453504 66.543718 26.666338 64.07172 26.934338 C 61.599723 27.203338 59.383349 25.412916 59.115349 22.940919 L 49.485828 20.915887 L 46.565109 34.956579 C 52.751103 35.090579 58.771712 37.003557 63.894707 40.493554 C 65.057706 39.386555 66.588671 38.726317 68.19967 38.670317 C 71.834666 38.547317 74.87714 41.376315 75.01114 45.000311 C 75.05614 47.528309 73.635285 49.853361 71.375287 50.98336 C 71.420287 51.643359 71.420287 52.305909 71.375287 52.965908 C 71.375287 63.054898 59.630448 71.240757 45.145462 71.240757 C 30.660477 71.240757 18.915637 63.043898 18.915637 52.965908 C 18.870637 52.305909 18.870637 51.643359 18.915637 50.98336 C 18.255638 50.69236 17.664044 50.27837 17.149045 49.797371 C 14.498047 47.314373 14.375746 43.154793 16.858743 40.514795 C 19.341741 37.863798 23.501321 37.741496 26.141319 40.224494 C 31.331313 36.712497 37.42642 34.788519 43.690413 34.687519 L 47.014722 19.071409 L 47.014722 19.050167 C 47.140722 18.479418 47.591569 18.070911 48.126366 17.973927 z M 34.517586 45.000311 C 32.034589 45.000311 30.010828 47.024072 30.010828 49.507069 C 30.010828 51.990067 32.023589 53.994367 34.517586 54.017367 C 37.000584 54.017367 39.027884 51.990067 39.027884 49.507069 C 39.027884 47.024072 37.000584 45.000311 34.517586 45.000311 z M 55.348507 45.156083 C 52.865509 45.156083 50.838209 47.179843 50.838209 49.662841 C 50.838209 52.145838 52.865509 54.173139 55.348507 54.173139 L 55.313104 54.339531 L 55.536141 54.339531 C 58.019138 54.238531 59.955264 52.146838 59.855264 49.662841 C 59.855264 47.179843 57.831504 45.156083 55.348507 45.156083 z M 34.850371 59.890667 C 34.577621 59.890667 34.305633 59.982308 34.082133 60.166808 C 33.567134 60.591807 33.490741 61.365297 33.915741 61.880296 C 37.115738 64.285294 41.027178 65.514216 45.032174 65.346216 C 49.03717 65.513216 52.95315 64.285294 56.152147 61.880296 L 56.152147 62.057309 C 56.644146 61.57631 56.654388 60.772096 56.173389 60.280096 C 55.691389 59.788097 54.888175 59.777855 54.396175 60.258855 C 51.656178 62.215853 48.345687 63.17802 44.989691 62.99902 C 41.634694 63.15602 38.332686 62.146806 35.625689 60.166808 C 35.396189 59.982308 35.123121 59.890667 34.850371 59.890667 z "
   transform="scale(0.55168889)" /></svg>
