<?xml version="1.0" encoding="UTF-8"?>
<!-- Created with Inkscape (http://www.inkscape.org/) -->
<svg width="769.03" height="534.67" version="1.1" viewBox="0 0 769.03 534.67" xmlns="http://www.w3.org/2000/svg">
 <g transform="translate(-145.8 -289.86)">
  <path d="m172.86 473.68c16.565-20.678 37.605-44.551 52.049-69.041 22.542-38.218 37.899-76.827 63.366-98.6 15.598-13.335 39.127-17.811 59.536-15.667 25.783 2.7084 45.56 24.943 69.458 34.99 40.193 16.898 80.815 34.836 123.77 42.302 34.649 6.0222 70.754 7.0426 105.49 1.5667 47.038-7.4144 87.832-50.2 135.26-45.957 14.669 1.3121 29.317 10.016 38.646 21.412 16.575 20.247 11.76 51.558 23.734 74.824 15.21 29.551 47.169 49.033 59.824 79.765 9.5581 23.212 12.039 49.55 10.34 74.595-2.7176 40.049-22.842 76.992-32.497 115.95-8.4203 33.98-2.3044 73.826-22.157 102.66-10.997 15.973-29.463 29.692-48.745 31.758-22.004 2.3574-44.378-10.3-62.039-23.634-18.39-13.885-19.812-47.226-41.36-55.392-18.105-6.8618-38.771 4.9399-56.869 11.817-30.199 11.475-51.876 45.255-84.041 48.272-56.512 5.2997-104.34-50.619-160.85-55.88-51.244-4.7706-105.11 27.74-152.69 22.875-55.664-5.6922-54.628-73.355-92.24-153.96-17.314-37.105-26.787-96.23 12.012-144.66z"/>
  <g stroke="#6d4aff" stroke-linecap="round" stroke-linejoin="round">
   <path d="m212.9 696.91c6.8482 20.521 25.442 41.568 47.637 45.646 21.179 3.8921 41.712-1.3289 61.611-6.7949 19.899-5.466 39.245-11.182 58.117-9.8203 29.839 2.1536 62.218 14.512 94.359 26.324s64.064 23.144 93.98 22.148c24.11-0.80237 42.435-13.075 58.262-24.445 15.827-11.37 29.238-21.475 43.152-21.514 31.863-0.0895 56.909 5.0135 72.811 15.367 8.1044 5.2768 14.869 16.692 22.02 28.35s14.849 23.82 27.67 28.746c9.7664 3.7528 19.296 1.3472 27.168-3.2852 7.8716-4.6324 14.688-11.362 21.016-17.348 9.412-8.9036 12.156-24.36 13.602-37.703 1.4458-13.343 3.6243-41.447 3.6243-41.447s-8.2986 28.22-13.035 42.139c-3.4081 10.015-5.6479 24.625-11.062 29.746-6.3998 6.0541-12.882 12.266-19.217 15.994s-11.92 5.1016-18.508 2.5703c-8.697-3.3419-15.717-13.2-22.734-24.641s-13.872-24.201-25.086-31.502c-18.594-12.107-45.382-17.079-78.297-16.986-18.474 0.0519-33.348 12.179-48.957 23.393s-31.874 21.877-52.762 22.572c-27.104 0.90199-58.154-9.7646-90.197-21.541-32.043-11.776-65.062-24.601-97.088-26.912-21.317-1.5385-41.747 4.7301-61.486 10.152-19.739 5.4223-38.706 9.9941-57.156 6.6035-16.787-3.0849-34.261-21.903-39.959-38.979-10.543-31.591-35.359-73.842-35.359-73.842s20.002 59.914 25.875 77.008z" color="#000000" fill="#6d4aff" style="-inkscape-stroke:none"/>
   <g fill="none" stroke-width="10">
    <path d="m518.31 652.66c6.1593 2.4177 12.393 4.6427 20.86 1.0607"/>
    <path d="m328.45 558.97 46.669-69.65"/>
    <path d="m320 580.25c-4.4192 8.1128 1.562 9.292 8.25 10"/>
    <path d="m399.52 595.74-2.8284 48.083c2.3044 10.375 11.114 9.3656 20.86 6.7175"/>
    <path d="m654.78 555.79 40.305-65.761"/>
    <path d="m640.29 578.41c2.5356 8.6591 7.9803 12.47 14.496 14.496"/>
    <path d="m707.5 599-5.5 47 27.5 2.5"/>
    <path d="m484.5 556.5c3.584-10.735 8.308-20.901 13.5-30.832 5.4114-10.35 11.331-20.446 17-30.668"/>
    <path d="m529.5 479c6.2043-6.346 13.079-11.839 26.5-9"/>
   </g>
  </g>
  <g stroke-linecap="round" stroke-linejoin="round">
   <g fill="none" stroke="#fff" stroke-width="10">
    <path d="m267.27 380.4c10.266-28.557 22.712-56.654 63.401-55.476"/>
    <path d="m407.82 367.7c11.635 7.3426 24.387 13.912 48.083 12.905"/>
    <path d="m172.5 526.75c3.9454-23.945 15.721-43.805 35-59.75"/>
    <path d="m749.89 362.39c21.187-2.1026 40.849-2.8835 54.447 17.324"/>
   </g>
   <path d="m182.54 611.32c3.1275 12.13 17.538 71.235 26.26 97.371 6.9914 20.95 27.231 35.509 48.387 39.396 21.15 3.8867 44.81-0.44187 68.139-5.0879 23.329-4.646 46.377-9.6461 65.342-8.2774 29.891 2.1574 60.33 13.882 90.6 25.07 30.269 11.189 60.402 21.895 90.238 20.902 24.105-0.80218 43.438-12.995 60.381-24.354 16.943-11.359 31.618-21.566 45.533-21.605 31.712-0.0891 45.462 5.8962 62.312 16.867 8.2426 5.3668 13.965 15.396 20.248 25.816s13.351 21.441 25.941 26.279c19.207 7.3805 41.613-2.8087 55.434-15.883 9.0964-8.605 12.881-22.933 15.17-35.199 2.2887-12.266 2.6543-22.703 2.6543-22.703 5.4728-74.741-11.771 16.219-12.484 20.869-2.1366 11.451-6.4816 24.348-12.211 29.768-11.634 11.006-31.476 19.002-44.977 13.814-8.9273-3.4304-14.827-11.93-20.963-22.107-6.1357-10.177-12.282-21.822-23.357-29.033-17.646-11.489-34.728-18.581-67.795-18.488-18.474 0.0519-34.331 12.076-51.074 23.301-16.743 11.225-34.251 21.969-55.145 22.664-27.184 0.90467-56.274-9.1368-86.439-20.287s-61.372-23.356-93.346-25.664c-21.224-1.5318-44.831 3.8261-68.016 8.4434-23.184 4.6173-45.898 8.4564-64.377 5.0605-17.826-3.2759-35.154-16.082-40.709-32.729-8.5446-25.604-11.773-36.288-16.438-50.701-3.7222-11.502-21.996-53.934-19.309-43.504z" color="#000000" fill="#fff" style="-inkscape-stroke:none"/>
   <g fill="none" stroke="#fff" stroke-width="10">
    <path d="m354.5 564.5s21.341-41.116 37.25-57.5c2.9629-3.0515 10.5-7.25 10.5-7.25l-3.75 66z"/>
    <path d="m391 593-1.5 60.5 34.5 0.5 4.5-58 21 3 2-31-23.5-4 6.5-109.5c-21.937-1.5216-43.402-6.1478-51 5l-68.5 100.5-6 35.5z"/>
    <path d="m474.5 604.5s-7.5193-32.769-2.5-51.5c9.1539-34.16 27.603-73.226 58-94 13.088-6.6198 31.611-14.053 43-5 0 0 15.389 8.2857 19.5 15.5 6.6631 11.694 4.295 26.595 5.5 40 2.4494 27.248 6.7986 54.841 3.5 82-1.3608 11.204-9.5 32.5-9.5 32.5"/>
    <path d="m498.16 559.32c6.0526-26.09 20.868-44.749 40.305-66.114 0 0 17.994-14.27 22.627-7.7782 8.1501 11.42 6.0768 112.42 1.4142 131.17-1.5947 6.4138-17.173 9.4961-23.688 10.607-10.8 1.8408-21.752-3.2707-27.931-9.5459-13.417-13.627-17.742-36.723-12.728-58.336z"/>
    <path d="m750 503-5.5 63 30.5 4-4.5 24.5-36-4.5"/>
    <path d="m751.5 459.5s-36.158-12.55-46.5-1c-23.597 26.352-48.882 71.054-67 107-4.2759 8.4833 0 28.5 0 28.5l61.5 1-3 57 34.5 3.5 5.5-40"/>
    <path d="m672.46 563.92c14.51-21.581 22.94-50 44.194-63.993l-6.364 66.114z"/>
   </g>
  </g>
 </g>
</svg>
