<?xml version="1.0" encoding="UTF-8"?>
<!-- Created with Inkscape (http://www.inkscape.org/) -->
<svg width="2197.2" height="495.61" version="1.1" viewBox="0 0 2197.2 495.61" xmlns="http://www.w3.org/2000/svg">
 <g transform="translate(-73.712 -44.317)">
  <path d="m233.24 537.24c-1.766-1.766-5.5127-7.5912-8.326-12.945-2.9256-5.5674-6.3016-10.171-7.887-10.754-1.5246-0.56116-9.3719-1.3912-17.439-1.8446-8.0667-0.4534-19.767-2.1123-26-3.6865-6.2333-1.5742-15.141-4.5788-19.795-6.6769s-12.253-6.5201-16.887-9.8267c-4.6337-3.3065-13.858-11.885-20.498-19.064-6.64-7.1784-14.54-16.334-17.555-20.347-3.015-4.0123-9.0091-14.42-13.32-23.129-4.6328-9.3586-8.7427-19.899-10.05-25.775-1.4845-6.6724-2.0296-13.749-1.6579-21.523 0.43487-9.0958 1.2558-12.854 3.8246-17.507 1.799-3.2587 5.3178-7.3037 7.8197-8.9889 2.5018-1.6852 7.5608-3.9584 11.242-5.0516s10.334-1.9772 14.785-1.9645c4.4502 0.0133 12.006 0.85309 16.791 1.8674 4.7846 1.0144 13.57 3.7225 19.522 6.018 6.0771 2.3436 18.925 9.4184 29.301 16.134 10.163 6.5783 23.675 16.31 30.027 21.625 6.352 5.3157 12.303 11.015 13.225 12.665 0.92187 1.65 2.108 3 2.6358 3s1.3632-2.1514 1.8565-4.7808 2.2759-8.8567 3.9613-13.838c1.6854-4.9817 6.2752-14.38 10.199-20.886 4.8939-8.1129 11.025-15.648 19.52-23.988l12.385-12.16v-20.84c0-11.462-0.28549-20.84-0.63444-20.84-0.34894 0-2.5989 1.2094-5 2.6876-2.401 1.4782-9.0465 4.1782-14.768 6-6.8505 2.1814-13.494 3.3124-19.458 3.3124-5.523 0-12.02-1.0199-16.655-2.6144-4.1794-1.438-10.629-4.2638-14.333-6.2798-3.7039-2.0159-11.08-8.2842-16.39-13.93-6.2793-6.6749-11.345-13.688-14.486-20.054-2.6564-5.3842-5.7463-13.689-6.8664-18.456-1.206-5.1324-2.0366-14.92-2.0366-24 0-8.9367 0.83027-18.855 1.9902-23.776 1.0946-4.6432 4.0115-12.743 6.482-18s8.1298-13.791 12.576-18.965c4.4465-5.1737 11.667-12.222 16.046-15.662 4.3789-3.4402 12.304-8.3361 17.612-10.88 5.3074-2.5435 14.119-5.619 19.582-6.8343 7.3887-1.6438 13.741-2.0334 24.802-1.5213 8.1784 0.37864 18.215 1.617 22.304 2.752 4.0888 1.1349 8.2516 2.2484 9.2508 2.4744 1.1508 0.26027 2.1428-1.2995 2.7067-4.2558 0.48953-2.5667 2.1868-7.8644 3.7716-11.773 1.5848-3.9083 5.2028-10.508 8.0398-14.667 2.837-4.1583 9.277-11.497 14.311-16.309 5.034-4.8117 11.853-10.584 15.153-12.826s11.574-6.874 18.386-10.291c6.8123-3.4174 17.912-7.7576 24.667-9.6448 9.685-2.706 16.423-3.5775 31.881-4.1233 12.142-0.42868 23.805-0.07716 30.65 0.92378 6.0777 0.88867 17.498 3.5706 25.379 5.9598 10.352 3.1385 18.287 6.7131 28.593 12.881 9.471 5.6679 17.442 11.746 23.719 18.086 5.1999 5.2524 11.755 12.89 14.567 16.973s6.8432 12.386 8.9582 18.45c2.9912 8.5774 4.3661 10.957 6.1893 10.714 1.2892-0.17217 8.6439-0.6838 16.344-1.1369 10.296-0.60588 16.578-0.27314 23.745 1.2576 5.3597 1.1448 14.292 4.2686 19.849 6.9416 7.5653 3.6388 12.655 7.4222 20.255 15.055 5.5828 5.6074 12.108 13.536 14.499 17.619 2.3919 4.0831 5.6373 10.983 7.2121 15.333 1.8143 5.0119 3.0836 12.328 3.4649 19.97 0.42671 8.5531-0.038 14.563-1.5983 20.667-1.21 4.7336-4.5972 13.565-7.5271 19.624-3.5538 7.35-7.7293 13.42-12.543 18.234-4.7285 4.7285-11.099 9.14-18.478 12.797-6.1943 3.0694-13.973 5.8862-17.286 6.2597l-6.0236 0.67894-0.59644 58.173c-0.48787 47.584-0.98433 59.658-2.7275 66.328-1.1721 4.4852-3.929 12.681-6.1266 18.213-2.1975 5.5319-6.5732 14.462-9.7238 19.845-3.7279 6.3694-10.684 14.764-19.92 24.04-12.975 13.031-15.404 14.838-28.346 21.08-7.7849 3.755-19.699 8.2264-26.475 9.9364-11.734 2.961-15.37 3.1536-76.321 4.0414-44.883 0.65384-68.381 0.47587-78.667-0.59581-8.0667-0.84047-16-2.3979-17.629-3.4609-1.6294-1.063-5.3588-5.08-8.2876-8.9266s-8.0252-10.469-11.325-14.718l-6.0003-7.7237-4.628 9.057c-2.5454 4.9814-7.3905 12.527-10.767 16.769-3.9062 4.9069-6.7251 7.3541-7.7508 6.7286-0.88657-0.54062-7.012-4.3521-13.612-8.4699s-16.765-10.914-22.589-15.103c-5.8241-4.1887-17.224-13.442-25.333-20.563-8.1092-7.1208-25.835-23.752-39.391-36.959s-28.583-28.506-33.392-33.999c-4.8096-5.4926-10.757-11.343-13.216-13-2.4594-1.6574-5.8829-3.0134-7.6078-3.0134s-3.1222 0.45-3.1052 1c0.0171 0.55 3.9617 5.7851 8.7659 11.634 4.8042 5.8485 8.1464 10.83 7.4273 11.069-0.71917 0.23974-7.9844-0.4954-16.145-1.6336s-15.368-2.0695-16.017-2.0695c-0.66339 0-0.6115 2.189 0.11853 5 0.7142 2.75 1.5344 5.7171 1.8226 6.5936 0.37071 1.1272 1.7276 1.2485 4.6364 0.41426 2.4201-0.69407 7.524-0.66955 12.403 0.0596 4.56 0.68144 11.891 1.9429 16.291 2.8033 7.4337 1.4536 8.7078 2.2803 18 11.68l10 10.116-9.3333 0.83439c-5.1333 0.45891-15.418 0.90891-22.855 1l-13.522 0.16561 3.5219 7c1.937 3.85 3.6162 7.1942 3.7313 7.4316 0.1152 0.2374 2.2152-0.61974 4.6667-1.9048 3.4317-1.7989 8.7896-2.4725 23.287-2.9278l18.83-0.59137 12.213 11.163c6.7172 6.1396 14.641 13.113 17.609 15.498 4.3492 3.4938 4.9685 4.4988 3.1926 5.1802-1.2119 0.46504-14.137 0.55836-28.722 0.20736-14.585-0.35099-26.203-0.12787-25.818 0.49591 0.38549 0.62374 2.3849 2.0049 4.4431 3.0692s7.8702 2.8311 12.915 3.9262c5.0453 1.0951 14.573 2.5884 21.173 3.3184 6.6 0.73002 15.856 1.7007 20.568 2.1571 4.7126 0.45638 10.878 2.008 13.701 3.4481 2.8228 1.44 9.0182 6.4285 13.768 11.085 5.5227 5.415 9.8861 11.199 12.105 16.046 1.9083 4.1682 3.7746 9.8529 4.1475 12.633 0.56596 4.2195 0.0476 5.7537-3.139 9.2896-2.4699 2.7408-5.5467 4.5103-8.7189 5.0144-4.0171 0.6383-5.4817 0.19928-8.113-2.432zm259.68-65.519c4.4-1.2659 11.895-4.2409 16.655-6.6111 5.0483-2.5136 12.7-8.1417 18.361-13.505 5.3384-5.0578 12.469-13.352 15.846-18.432 3.377-5.0797 7.6207-13.494 9.4306-18.698 1.8098-5.2043 3.8181-14.91 4.4627-21.568 0.64463-6.6583 1.1883-18.856 1.2082-27.106l0.0361-15h-99.763l-3.4519-4.1023c-2.2702-2.6979-3.4518-5.6948-3.4518-8.7543 0-2.5586 0.58333-5.742 1.2963-7.0742 0.71296-1.3322 2.363-2.9225 3.6667-3.5341 1.3037-0.61154 24.57-1.4321 51.704-1.8235l49.333-0.71163-0.48414-27.023c-0.26628-14.862-0.0897-30.162 0.39247-34l0.87661-6.9774 13.608-0.16031c9.0435-0.10653 15.601-0.90203 19.551-2.3717 3.2687-1.2163 8.7649-4.0222 12.214-6.2354 3.449-2.2132 8.3883-7.1459 10.976-10.962 2.588-3.8157 5.7009-10.445 6.9177-14.732 1.4993-5.282 2.0624-11.298 1.7473-18.667-0.37021-8.6577-1.2451-12.462-4.2945-18.672-2.1062-4.2896-7.2062-11.197-11.333-15.349-4.1271-4.1523-10.804-9.3295-14.837-11.505-6.6444-3.5836-8.7503-4.003-22.416-4.4644-8.2953-0.28004-18.852-0.10546-23.46 0.38798-7.8634 0.84209-8.5096 1.1744-10.532 5.4146-1.1848 2.4846-3.7087 5.536-5.6087 6.7809-2.0546 1.3462-3.9422 1.7758-4.658 1.06-0.66193-0.66193-3.3252-9.1729-5.9185-18.913-2.5932-9.7404-6.5642-21.438-8.8244-25.995-2.2602-4.5567-6.5532-11.453-9.5399-15.326-2.9867-3.8724-8.4883-9.4754-12.226-12.451-3.7374-2.9758-11.6-7.7202-17.473-10.543-5.8728-2.823-15.478-6.3419-21.345-7.8198-5.8667-1.4779-16.156-3.352-22.865-4.1648-8.8996-1.0782-15.099-1.0806-22.924-0.0092-5.8991 0.8077-14.122 2.3533-18.274 3.4346-4.1516 1.0813-12.009 3.823-17.461 6.0927s-13.52 6.782-17.928 10.027c-4.4087 3.2455-10.732 8.7298-14.051 12.188-3.3195 3.4576-8.0311 10.487-10.47 15.62-2.4391 5.1333-5.0929 12.513-5.8974 16.399-0.80444 3.8861-1.4626 9.6401-1.4626 12.787s1.1902 10.375 2.6449 16.063c1.8682 7.3047 2.2602 11.06 1.3348 12.79-0.7206 1.3464-2.555 2.8432-4.0766 3.3261-1.5215 0.4829-4.6042 0.1168-6.8506-0.81372-2.5651-1.0625-5.876-4.5238-8.9017-9.3059-2.6496-4.1878-5.778-9.3736-6.9519-11.524-1.9792-3.6257-3.0936-4.0691-15.333-6.1015-7.2594-1.2054-15.681-2.5541-18.716-2.9972-3.0341-0.44301-10.234-0.16372-16 0.62067-7.1514 0.97288-13.562 2.9351-20.169 6.1738-5.6888 2.7886-12.463 7.5259-16.418 11.481-3.7032 3.7032-8.7777 9.8163-11.277 13.585-2.4989 3.7684-5.7408 10.338-7.2044 14.599-1.4636 4.2611-3.2987 11.264-4.078 15.562-1.1164 6.1563-0.98818 9.8876 0.60408 17.586 1.1116 5.3743 4.135 14.066 6.7186 19.316 3.1912 6.4836 7.0402 11.685 12.003 16.221 4.5657 4.1728 9.8574 7.5245 14.109 8.9368 4.5062 1.4967 9.5768 2.0801 15.015 1.7275 5.637-0.36543 10.676-1.7703 16.071-4.4809 4.3224-2.1717 11.289-7.3634 15.482-11.537 6.924-6.8929 7.8598-7.4224 10.209-5.7768 1.4225 0.99635 4.8109 2.2289 7.5299 2.739 2.7189 0.51008 6.3665 2.0468 8.1058 3.4149l3.1623 2.4874 0.0214 62.646 4.1962 3.5309c2.3079 1.942 5.1682 5.4094 6.356 7.7054 1.1879 2.296 2.9592 7.1745 3.9363 10.841 0.97705 3.6667 1.7921 13.267 1.8112 21.333 0.0191 8.0667-0.9167 25.167-2.0795 38s-2.7005 25.257-3.4171 27.607c-1.0045 3.2952-0.80412 5.2387 0.87505 8.4858 1.1979 2.3164 4.5588 6.7946 7.4687 9.9515s8.6034 8.2955 12.652 11.419c4.0489 3.1237 10.467 6.7684 14.263 8.0994 6.3757 2.2357 12.029 2.391 74.235 2.0395 59.045-0.33368 68.318-0.66386 75.333-2.6822zm-88.497-123.72c-1.6499-1.5371-3.6028-4.3808-4.3399-6.3194-0.73707-1.9386-0.97991-5.4448-0.53965-7.7916 0.45532-2.4271 2.5497-5.7387 4.8574-7.6806 3.0376-2.556 5.5646-3.4137 10.057-3.4137 4.8541 0 6.7447 0.7445 9.8977 3.8974 2.8811 2.8811 3.8974 5.164 3.8974 8.7543 0 2.6713-0.67023 6.1674-1.4894 7.7692-0.81916 1.6018-2.7692 3.949-4.3333 5.216-1.7482 1.4161-5.1874 2.3151-8.9259 2.3333-4.3608 0.0213-6.9308-0.7612-9.0817-2.7651zm77.83-111.42c-1.4667-0.31309-6.2667-1.825-10.667-3.3597-4.4-1.5348-10.67-4.6206-13.934-6.8575s-8.4864-6.8054-11.606-10.152c-5.0046-5.3694-5.875-5.838-7.3992-3.9831-0.95005 1.1562-4.1274 3.9363-7.0607 6.178s-9.2333 6.2161-14 8.832-12.243 5.6858-16.613 6.822c-4.3707 1.1362-11.698 2.0658-16.283 2.0658-5.2301 0-11.153-1.0537-15.894-2.8277-4.1568-1.5553-9.8451-4.8942-12.641-7.4198-2.7956-2.5256-6.6171-7.21-8.4922-10.41-1.8751-3.1997-3.4094-7.0454-3.4094-8.546 0-1.6727 1.522-3.5154 3.9338-4.7626 2.1636-1.1188 4.8008-2.0342 5.8604-2.0342s6.2946 1.8588 11.633 4.1306c8.5663 3.6453 10.897 4.0761 19.835 3.6667 8.1127-0.37156 11.862-1.3172 18.836-4.7512 6.0008-2.9545 11.38-7.1148 17.304-13.382 4.7281-5.0022 10.876-11.923 13.663-15.379 2.7865-3.4564 5.621-6.2844 6.2989-6.2844 0.67789 0 5.1848 5.3848 10.015 11.966 4.8306 6.5814 11.137 13.981 14.014 16.443 2.8769 2.4625 8.1448 6.0634 11.706 8.0018 3.5616 1.9385 10.74 4.2558 15.953 5.1497 8.2128 1.4083 10.776 1.3138 19.212-0.70826 5.354-1.2834 12.056-3.483 14.894-4.8881 3.7912-1.8772 5.8161-2.2032 7.6361-1.2291 1.3623 0.72905 3.0922 2.4754 3.8443 3.8808 0.91605 1.7117 0.924 2.8293 0.0241 3.3855-0.73888 0.45666-3.6732 4.2611-6.5208 8.4543-3.5432 5.2176-7.2236 8.7335-11.66 11.139-3.5656 1.9332-10.169 4.4651-14.675 5.6266-4.5058 1.1614-11.106 2.0421-14.667 1.9571-3.5609-0.0851-7.6743-0.41084-9.1409-0.72394zm-220.67 226.08c0-2.1866 2.1424-13.701 4.7609-25.588s6.1869-27.312 7.9298-34.279c1.7429-6.9667 3.8112-16.867 4.5961-22 0.78497-5.1333 1.7642-10.983 2.1761-13 0.41731-2.043 0.16211-3.6667-0.57633-3.6667-0.72891 0-2.9426 2.85-4.9192 6.3333s-5.9618 12.633-8.8559 20.333-7.3474 22.1-9.8963 32-4.9682 21.6-5.3763 26c-0.69224 7.4632-0.45771 8.3806 3.4953 13.672 2.3305 3.1195 4.7838 5.334 5.4516 4.9213 0.66783-0.41274 1.2142-2.5395 1.2142-4.726z" stroke-width="1.3333"/>
 </g>
 <g stroke-width="6.5227" aria-label="Marmit@">
  <path d="m931.86 105.49v239.2h-24.267v-191.01l-85.28 191.01h-17.68l-85.28-190.32v190.32h-24.267v-239.2h25.653l92.56 207.31 92.56-207.31z"/>
  <path d="m975.89 249.7q0-29.12 11.44-50.96 11.787-22.187 32.24-33.973 20.8-12.133 46.8-12.133 27.04 0 46.453 12.48 19.76 12.48 28.427 31.893v-41.6h24.267v189.28h-24.267v-41.947q-9.0134 19.413-28.773 32.24-19.413 12.48-46.453 12.48-25.653 0-46.453-12.133-20.453-12.133-32.24-34.32-11.44-22.187-11.44-51.307zm165.36 0.34667q0-22.88-9.36-40.213t-25.653-26.693q-15.947-9.36-35.36-9.36-20.107 0-36.053 9.0133-15.947 9.0134-25.307 26.347-9.0133 16.987-9.0133 40.56 0 23.227 9.0133 40.907 9.36 17.333 25.307 26.693 15.947 9.0133 36.053 9.0133 19.413 0 35.36-9.36 16.293-9.36 25.653-26.693t9.36-40.213z"/>
  <path d="m1245.2 189.04q7.9734-17.68 24.267-27.387 16.64-9.7067 40.56-9.7067v25.307h-6.5866q-26.347 0-42.293 14.213t-15.947 47.493v105.73h-24.267v-189.28h24.267z"/>
  <path d="m1571.8 151.94q33.28 0 54.08 21.147 21.147 20.8 21.147 60.667v110.93h-23.92v-108.16q0-30.853-14.907-47.147t-40.56-16.293q-26.693 0-42.64 17.68-15.947 17.68-15.947 51.307v102.61h-23.92v-108.16q0-30.853-14.907-47.147t-40.907-16.293q-26.693 0-42.64 17.68-15.947 17.68-15.947 51.307v102.61h-24.267v-189.28h24.267v32.587q9.0133-17.68 25.653-26.693 16.64-9.36 37.093-9.36 24.613 0 42.987 11.787 18.72 11.787 27.04 34.667 7.6266-22.533 26-34.32 18.72-12.133 42.293-12.133z"/>
  <path d="m1712.9 119.7q-7.28 0-12.48-5.2-5.2-5.2-5.2-12.827 0-7.6267 5.2-12.48 5.2-5.2 12.48-5.2t12.48 5.2q5.2 4.8533 5.2 12.48 0 7.6267-5.2 12.827-5.2 5.2-12.48 5.2zm12.133 35.707v189.28h-24.267v-189.28z"/>
  <path d="m1811.7 175.86v117.52q0 17.333 6.5867 23.92 6.5867 6.5867 23.227 6.5867h22.187v20.8h-26q-25.653 0-38.133-11.787-12.48-12.133-12.48-39.52v-117.52h-26.347v-20.453h26.347v-47.493h24.613v47.493h52v20.453z"/>
  <path d="m2072.4 124.21q37.44 0 65.867 14.56 28.427 14.56 43.68 40.907 15.253 26 15.253 59.973 0 27.04-8.6667 51.653-8.6667 24.613-24.96 40.213-16.293 15.253-38.133 15.253-16.987 0-26-9.0133-8.6667-9.36-9.36-25.307-10.747 15.947-27.387 25.307-16.64 9.0133-35.36 9.0133-26.347 0-41.253-15.947-14.56-15.947-14.56-43.333 0-25.653 10.747-47.84 10.747-22.533 29.813-36.053 19.067-13.52 43.333-13.52 17.333 0 29.12 7.6267 12.133 7.6267 17.333 22.187l4.5066-25.653h21.147l-17.68 100.88q-1.04 6.24-1.04 11.44 0 23.227 20.107 23.227 14.907 0 25.653-13.52 11.093-13.52 16.64-33.973 5.8933-20.8 5.8933-41.253 0-30.507-13.173-52.693-12.827-22.533-37.093-34.32-24.267-12.133-57.547-12.133-41.6 0-75.227 20.453t-52.693 55.467q-19.067 35.013-19.067 77.307-0.3467 47.147 28.427 73.147 28.773 26.347 78.693 26.347 31.547 0 57.2-11.787l3.8134 16.987q-30.507 12.48-66.213 12.48-36.4 0-64.133-14.213-27.733-13.867-42.987-39.867-15.253-26-15.253-60.667 0-48.187 21.84-87.707 22.187-39.867 61.013-62.747 39.173-22.88 87.707-22.88zm-38.133 203.49q15.6 0 28.773-8.32 13.173-8.32 21.493-23.227 8.6667-14.907 10.747-33.973 0.6933-6.24 0.6933-9.0134 0-19.413-10.747-31.547-10.4-12.48-29.813-12.48-18.373 0-32.24 10.747-13.867 10.747-21.493 28.08-7.6267 16.987-7.6267 36.053 0 20.107 10.4 31.893 10.4 11.787 29.813 11.787z"/>
 </g>
</svg>
